<?xml version="1.0" encoding="UTF-8" standalone="no"?>
<svg
   xmlns:dc="http://purl.org/dc/elements/1.1/"
   xmlns:cc="http://creativecommons.org/ns#"
   xmlns:rdf="http://www.w3.org/1999/02/22-rdf-syntax-ns#"
   xmlns:svg="http://www.w3.org/2000/svg"
   xmlns="http://www.w3.org/2000/svg"
   viewBox="0 0 816 1056"
   height="1056"
   width="816"
   xml:space="preserve"
   id="svg2"
   version="1.1"><metadata
     id="metadata8"><rdf:RDF><cc:Work
         rdf:about=""><dc:format>image/svg+xml</dc:format><dc:type
           rdf:resource="http://purl.org/dc/dcmitype/StillImage" /></cc:Work></rdf:RDF></metadata><defs
     id="defs6"><clipPath
       id="clipPath18"
       clipPathUnits="userSpaceOnUse"><path
         style="clip-rule:evenodd"
         id="path16"
         d="M 9.12e-6,0 H 612.00001 V 792 H 9.12e-6 Z" /></clipPath><clipPath
       id="clipPath30"
       clipPathUnits="userSpaceOnUse"><path
         style="clip-rule:evenodd"
         id="path28"
         d="M 211.13,670.06 H 348.19 V 696.1 H 211.13 Z" /></clipPath><clipPath
       id="clipPath38"
       clipPathUnits="userSpaceOnUse"><path
         style="clip-rule:evenodd"
         id="path36"
         d="M 211.13,670.06 H 348.19 V 696.1 H 211.13 Z" /></clipPath><clipPath
       id="clipPath50"
       clipPathUnits="userSpaceOnUse"><path
         style="clip-rule:evenodd"
         id="path48"
         d="M 211.13,670.06 H 348.19 V 696.1 H 211.13 Z" /></clipPath><clipPath
       id="clipPath62"
       clipPathUnits="userSpaceOnUse"><path
         style="clip-rule:evenodd"
         id="path60"
         d="M 211.13,670.06 H 348.19 V 696.1 H 211.13 Z" /></clipPath><clipPath
       id="clipPath74"
       clipPathUnits="userSpaceOnUse"><path
         style="clip-rule:evenodd"
         id="path72"
         d="m 108.5,670.18 h 63.24 V 696.7 H 108.5 Z" /></clipPath><clipPath
       id="clipPath82"
       clipPathUnits="userSpaceOnUse"><path
         style="clip-rule:evenodd"
         id="path80"
         d="m 108.5,670.18 h 63.24 V 696.7 H 108.5 Z" /></clipPath><clipPath
       id="clipPath94"
       clipPathUnits="userSpaceOnUse"><path
         style="clip-rule:evenodd"
         id="path92"
         d="m 108.5,670.18 h 63.24 V 696.7 H 108.5 Z" /></clipPath><clipPath
       id="clipPath106"
       clipPathUnits="userSpaceOnUse"><path
         style="clip-rule:evenodd"
         id="path104"
         d="m 391.15,673.06 h 63.264 V 697.9 H 391.15 Z" /></clipPath><clipPath
       id="clipPath114"
       clipPathUnits="userSpaceOnUse"><path
         style="clip-rule:evenodd"
         id="path112"
         d="m 391.15,673.06 h 63.264 V 697.9 H 391.15 Z" /></clipPath><clipPath
       id="clipPath126"
       clipPathUnits="userSpaceOnUse"><path
         style="clip-rule:evenodd"
         id="path124"
         d="m 391.15,673.06 h 63.264 V 697.9 H 391.15 Z" /></clipPath><clipPath
       id="clipPath138"
       clipPathUnits="userSpaceOnUse"><path
         style="clip-rule:evenodd"
         id="path136"
         d="m 92.304,533.35 h 63.24 v 26.544 h -63.24 z" /></clipPath><clipPath
       id="clipPath146"
       clipPathUnits="userSpaceOnUse"><path
         style="clip-rule:evenodd"
         id="path144"
         d="m 92.304,533.35 h 63.24 v 26.544 h -63.24 z" /></clipPath><clipPath
       id="clipPath158"
       clipPathUnits="userSpaceOnUse"><path
         style="clip-rule:evenodd"
         id="path156"
         d="m 92.304,533.35 h 63.24 v 26.544 h -63.24 z" /></clipPath><clipPath
       id="clipPath170"
       clipPathUnits="userSpaceOnUse"><path
         style="clip-rule:evenodd"
         id="path168"
         d="m 170.3,535.75 h 63.264 v 26.544 H 170.3 Z" /></clipPath><clipPath
       id="clipPath178"
       clipPathUnits="userSpaceOnUse"><path
         style="clip-rule:evenodd"
         id="path176"
         d="m 170.3,535.75 h 63.264 v 26.544 H 170.3 Z" /></clipPath><clipPath
       id="clipPath190"
       clipPathUnits="userSpaceOnUse"><path
         style="clip-rule:evenodd"
         id="path188"
         d="m 170.3,535.75 h 63.264 v 26.544 H 170.3 Z" /></clipPath><clipPath
       id="clipPath202"
       clipPathUnits="userSpaceOnUse"><path
         style="clip-rule:evenodd"
         id="path200"
         d="m 249.53,539.23 h 69.24 v 22.344 h -69.24 z" /></clipPath><clipPath
       id="clipPath210"
       clipPathUnits="userSpaceOnUse"><path
         style="clip-rule:evenodd"
         id="path208"
         d="m 249.53,539.23 h 69.24 v 22.344 h -69.24 z" /></clipPath><clipPath
       id="clipPath222"
       clipPathUnits="userSpaceOnUse"><path
         style="clip-rule:evenodd"
         id="path220"
         d="m 249.53,539.23 h 69.24 v 22.344 h -69.24 z" /></clipPath><clipPath
       id="clipPath234"
       clipPathUnits="userSpaceOnUse"><path
         style="clip-rule:evenodd"
         id="path232"
         d="m 334.15,537.55 h 63.24 v 26.544 h -63.24 z" /></clipPath><clipPath
       id="clipPath242"
       clipPathUnits="userSpaceOnUse"><path
         style="clip-rule:evenodd"
         id="path240"
         d="m 334.15,537.55 h 63.24 v 26.544 h -63.24 z" /></clipPath><clipPath
       id="clipPath254"
       clipPathUnits="userSpaceOnUse"><path
         style="clip-rule:evenodd"
         id="path252"
         d="m 334.15,537.55 h 63.24 v 26.544 h -63.24 z" /></clipPath><clipPath
       id="clipPath266"
       clipPathUnits="userSpaceOnUse"><path
         style="clip-rule:evenodd"
         id="path264"
         d="m 409.15,538.15 h 63.264 v 26.544 H 409.15 Z" /></clipPath><clipPath
       id="clipPath274"
       clipPathUnits="userSpaceOnUse"><path
         style="clip-rule:evenodd"
         id="path272"
         d="m 409.15,538.15 h 63.264 v 26.544 H 409.15 Z" /></clipPath><clipPath
       id="clipPath286"
       clipPathUnits="userSpaceOnUse"><path
         style="clip-rule:evenodd"
         id="path284"
         d="m 409.15,538.15 h 63.264 v 26.544 H 409.15 Z" /></clipPath><linearGradient
       id="linearGradient304"
       spreadMethod="pad"
       gradientUnits="userSpaceOnUse"
       y2="598.45001"
       x2="303.12"
       y1="595.04999"
       x1="303.12"><stop
         id="stop290"
         offset="0"
         style="stop-opacity:1;stop-color:#c7d5ed" /><stop
         id="stop292"
         offset="0.085"
         style="stop-opacity:1;stop-color:#abc0e4" /><stop
         id="stop294"
         offset="0.13"
         style="stop-opacity:1;stop-color:#abc0e4" /><stop
         id="stop296"
         offset="0.5"
         style="stop-opacity:1;stop-color:#f6f8fc" /><stop
         id="stop298"
         offset="0.87"
         style="stop-opacity:1;stop-color:#abc0e4" /><stop
         id="stop300"
         offset="0.915"
         style="stop-opacity:1;stop-color:#abc0e4" /><stop
         id="stop302"
         offset="1"
         style="stop-opacity:1;stop-color:#c7d5ed" /></linearGradient><clipPath
       id="clipPath324"
       clipPathUnits="userSpaceOnUse"><path
         style="clip-rule:evenodd"
         id="path322"
         d="m 194.93,613.06 h 74.04 v 15.84 h -74.04 z" /></clipPath><clipPath
       id="clipPath332"
       clipPathUnits="userSpaceOnUse"><path
         style="clip-rule:evenodd"
         id="path330"
         d="m 194.93,613.06 h 74.04 v 15.84 h -74.04 z" /></clipPath><clipPath
       id="clipPath344"
       clipPathUnits="userSpaceOnUse"><path
         style="clip-rule:evenodd"
         id="path342"
         d="m 194.93,613.06 h 74.04 v 15.84 h -74.04 z" /></clipPath><clipPath
       id="clipPath356"
       clipPathUnits="userSpaceOnUse"><path
         style="clip-rule:evenodd"
         id="path354"
         d="m 89.304,613.06 h 94.44 v 15.84 h -94.44 z" /></clipPath><clipPath
       id="clipPath364"
       clipPathUnits="userSpaceOnUse"><path
         style="clip-rule:evenodd"
         id="path362"
         d="m 89.304,613.06 h 94.44 v 15.84 h -94.44 z" /></clipPath><clipPath
       id="clipPath376"
       clipPathUnits="userSpaceOnUse"><path
         style="clip-rule:evenodd"
         id="path374"
         d="m 89.304,613.06 h 94.44 v 15.84 h -94.44 z" /></clipPath><clipPath
       id="clipPath388"
       clipPathUnits="userSpaceOnUse"><path
         style="clip-rule:evenodd"
         id="path386"
         d="m 89.304,613.06 h 94.44 v 15.84 h -94.44 z" /></clipPath><clipPath
       id="clipPath400"
       clipPathUnits="userSpaceOnUse"><path
         style="clip-rule:evenodd"
         id="path398"
         d="m 293.33,614.26 h 74.064 V 630.1 H 293.33 Z" /></clipPath><clipPath
       id="clipPath408"
       clipPathUnits="userSpaceOnUse"><path
         style="clip-rule:evenodd"
         id="path406"
         d="m 293.33,614.26 h 74.064 V 630.1 H 293.33 Z" /></clipPath><clipPath
       id="clipPath420"
       clipPathUnits="userSpaceOnUse"><path
         style="clip-rule:evenodd"
         id="path418"
         d="m 293.33,614.26 h 74.064 V 630.1 H 293.33 Z" /></clipPath></defs><g
     transform="matrix(1.3333333,0,0,-1.3333333,0,1056)"
     id="g10"><g
       id="g12"><g
         clip-path="url(#clipPath18)"
         id="g14" /></g><path
       id="path20"
       style="fill:#4472c4;fill-opacity:1;fill-rule:evenodd;stroke:none"
       d="m 210.6,666 h 138 v 34.2 h -138 z" /><path
       id="path22"
       style="fill:none;stroke:#2f528f;stroke-width:1;stroke-linecap:butt;stroke-linejoin:miter;stroke-miterlimit:10;stroke-dasharray:none;stroke-opacity:1"
       d="m 210.6,666 h 138 v 34.2 h -138 z" /><g
       id="g24"><g
         clip-path="url(#clipPath30)"
         id="g26"><g
           id="g32"><g
             clip-path="url(#clipPath38)"
             id="g34"><text
               id="text42"
               style="font-variant:normal;font-weight:normal;font-size:11.03999996px;font-family:Calibri;-inkscape-font-specification:Calibri;writing-mode:lr-tb;fill:#000000;fill-opacity:1;fill-rule:nonzero;stroke:none"
               transform="matrix(1,0,0,-1,229.97,683.62)"><tspan
                 id="tspan40"
                 y="0"
                 x="0 6.8448 12.34272 17.63088 20.17008 23.868481 29.66448 32.159519 38.043839 43.806721 49.304642 53.886238 58.909439">Health Check </tspan></text>
</g></g><g
           id="g44"><g
             clip-path="url(#clipPath50)"
             id="g46"><text
               id="text54"
               style="font-variant:normal;font-weight:normal;font-size:11.03999996px;font-family:Calibri;-inkscape-font-specification:Calibri;writing-mode:lr-tb;fill:#000000;fill-opacity:1;fill-rule:nonzero;stroke:none"
               transform="matrix(1,0,0,-1,291.41,683.62)"><tspan
                 id="tspan52"
                 y="0"
                 x="0 6.7233601 12.01152 17.39904 26.26416 32.13744">Daemon</tspan></text>
</g></g><g
           id="g56"><g
             clip-path="url(#clipPath62)"
             id="g58" /></g></g></g><path
       id="path64"
       style="fill:#ffffff;fill-opacity:1;fill-rule:evenodd;stroke:none"
       d="m 108,666.05 h 64.2 v 34.8 H 108 Z" /><path
       id="path66"
       style="fill:none;stroke:#70ad47;stroke-width:1;stroke-linecap:butt;stroke-linejoin:miter;stroke-miterlimit:10;stroke-dasharray:none;stroke-opacity:1"
       d="m 108,666.05 h 64.2 v 34.8 H 108 Z" /><g
       id="g68"><g
         clip-path="url(#clipPath74)"
         id="g70"><g
           id="g76"><g
             clip-path="url(#clipPath82)"
             id="g78"><text
               id="text86"
               style="font-variant:normal;font-weight:normal;font-size:11.03999996px;font-family:Calibri;-inkscape-font-specification:Calibri;writing-mode:lr-tb;fill:#000000;fill-opacity:1;fill-rule:nonzero;stroke:none"
               transform="matrix(1,0,0,-1,121.46,684.1)"><tspan
                 id="tspan84"
                 y="0"
                 x="0 4.3166399 9.3508797 13.66752 17.365919 22.78656 31.65168">systemd</tspan></text>
</g></g><g
           id="g88"><g
             clip-path="url(#clipPath94)"
             id="g90" /></g></g></g><path
       id="path96"
       style="fill:#ffffff;fill-opacity:1;fill-rule:evenodd;stroke:none"
       d="m 390.6,669 h 64.2 v 33 h -64.2 z" /><path
       id="path98"
       style="fill:none;stroke:#70ad47;stroke-width:1;stroke-linecap:butt;stroke-linejoin:miter;stroke-miterlimit:10;stroke-dasharray:none;stroke-opacity:1"
       d="m 390.6,669 h 64.2 v 33 h -64.2 z" /><g
       id="g100"><g
         clip-path="url(#clipPath106)"
         id="g102"><g
           id="g108"><g
             clip-path="url(#clipPath114)"
             id="g110"><text
               id="text118"
               style="font-variant:normal;font-weight:normal;font-size:11.03999996px;font-family:Calibri;-inkscape-font-specification:Calibri;writing-mode:lr-tb;fill:#000000;fill-opacity:1;fill-rule:nonzero;stroke:none"
               transform="matrix(1,0,0,-1,401.59,686.02)"><tspan
                 id="tspan116"
                 y="0"
                 x="0 4.3166399 9.3508797 13.66752 17.365919 22.78656 31.65168 36.211201 39.909599">systemctl</tspan></text>
</g></g><g
           id="g120"><g
             clip-path="url(#clipPath126)"
             id="g122" /></g></g></g><path
       id="path128"
       style="fill:#ffffff;fill-opacity:0.89020003;fill-rule:evenodd;stroke:none"
       d="M 91.8,529.25 H 156 v 34.8 H 91.8 Z" /><path
       id="path130"
       style="fill:none;stroke:#70ad47;stroke-width:1;stroke-linecap:butt;stroke-linejoin:miter;stroke-miterlimit:10;stroke-dasharray:none;stroke-opacity:1"
       d="M 91.8,529.25 H 156 v 34.8 H 91.8 Z" /><g
       id="g132"><g
         clip-path="url(#clipPath138)"
         id="g134"><g
           id="g140"><g
             clip-path="url(#clipPath146)"
             id="g142"><text
               id="text150"
               style="font-variant:normal;font-weight:normal;font-size:9.96000004px;font-family:Calibri;-inkscape-font-specification:Calibri;writing-mode:lr-tb;fill:#000000;fill-opacity:1;fill-rule:nonzero;stroke:none"
               transform="matrix(1,0,0,-1,109.58,547.78)"><tspan
                 id="tspan148"
                 y="0"
                 x="0 6.1254001 11.37432 15.5874 20.14908 25.069321">Docker</tspan></text>
</g></g><g
           id="g152"><g
             clip-path="url(#clipPath158)"
             id="g154" /></g></g></g><path
       id="path160"
       style="fill:#ffffff;fill-opacity:1;fill-rule:evenodd;stroke:none"
       d="M 169.8,531.65 H 234 v 34.8 h -64.2 z" /><path
       id="path162"
       style="fill:none;stroke:#70ad47;stroke-width:1;stroke-linecap:butt;stroke-linejoin:miter;stroke-miterlimit:10;stroke-dasharray:none;stroke-opacity:1"
       d="M 169.8,531.65 H 234 v 34.8 h -64.2 z" /><g
       id="g164"><g
         clip-path="url(#clipPath170)"
         id="g166"><g
           id="g172"><g
             clip-path="url(#clipPath178)"
             id="g174"><text
               id="text182"
               style="font-variant:normal;font-weight:normal;font-size:9.96000004px;font-family:Calibri;-inkscape-font-specification:Calibri;writing-mode:lr-tb;fill:#000000;fill-opacity:1;fill-rule:nonzero;stroke:none"
               transform="matrix(1,0,0,-1,178.58,550.18)"><tspan
                 id="tspan180"
                 y="0"
                 x="0 5.1792002 10.42812 15.69696 20.617201 24.093241 29.37204 34.292278 37.62888 42.6786">Kubernetes</tspan></text>
</g></g><g
           id="g184"><g
             clip-path="url(#clipPath190)"
             id="g186" /></g></g></g><path
       id="path192"
       style="fill:#ffffff;fill-opacity:1;fill-rule:evenodd;stroke:none"
       d="m 249,535.15 h 70.2 v 30.6 H 249 Z" /><path
       id="path194"
       style="fill:none;stroke:#70ad47;stroke-width:1;stroke-linecap:butt;stroke-linejoin:miter;stroke-miterlimit:10;stroke-dasharray:none;stroke-opacity:1"
       d="m 249,535.15 h 70.2 v 30.6 H 249 Z" /><g
       id="g196"><g
         clip-path="url(#clipPath202)"
         id="g198"><g
           id="g204"><g
             clip-path="url(#clipPath210)"
             id="g206"><text
               id="text214"
               style="font-variant:normal;font-weight:normal;font-size:9.96000004px;font-family:Calibri;-inkscape-font-specification:Calibri;writing-mode:lr-tb;fill:#000000;fill-opacity:1;fill-rule:nonzero;stroke:none"
               transform="matrix(1,0,0,-1,259.25,551.38)"><tspan
                 id="tspan212"
                 y="0"
                 x="0 5.1493201 8.6253595 13.91412 21.832319 26.75256 30.089161 35.377918 40.298161 45.68652">Prometheus</tspan></text>
</g></g><g
           id="g216"><g
             clip-path="url(#clipPath222)"
             id="g218" /></g></g></g><path
       id="path224"
       style="fill:#ffffff;fill-opacity:1;fill-rule:evenodd;stroke:none"
       d="m 333.6,533.45 h 64.2 v 34.8 h -64.2 z" /><path
       id="path226"
       style="fill:none;stroke:#70ad47;stroke-width:1;stroke-linecap:butt;stroke-linejoin:miter;stroke-miterlimit:10;stroke-dasharray:none;stroke-opacity:1"
       d="m 333.6,533.45 h 64.2 v 34.8 h -64.2 z" /><g
       id="g228"><g
         clip-path="url(#clipPath234)"
         id="g230"><g
           id="g236"><g
             clip-path="url(#clipPath242)"
             id="g238"><text
               id="text246"
               style="font-variant:normal;font-weight:normal;font-size:9.96000004px;font-family:Calibri;-inkscape-font-specification:Calibri;writing-mode:lr-tb;fill:#000000;fill-opacity:1;fill-rule:nonzero;stroke:none"
               transform="matrix(1,0,0,-1,344.95,551.98)"><tspan
                 id="tspan244"
                 y="0"
                 x="0 5.4082799 10.17912 15.46788 20.736719 23.027519 26.36412 34.879921">RabbitMQ</tspan></text>
</g></g><g
           id="g248"><g
             clip-path="url(#clipPath254)"
             id="g250" /></g></g></g><path
       id="path256"
       style="fill:#ffffff;fill-opacity:1;fill-rule:evenodd;stroke:none"
       d="m 408.6,534.05 h 64.2 v 34.8 h -64.2 z" /><path
       id="path258"
       style="fill:none;stroke:#70ad47;stroke-width:1;stroke-linecap:butt;stroke-linejoin:miter;stroke-miterlimit:10;stroke-dasharray:none;stroke-opacity:1"
       d="m 408.6,534.05 h 64.2 v 34.8 h -64.2 z" /><g
       id="g260"><g
         clip-path="url(#clipPath266)"
         id="g262"><g
           id="g268"><g
             clip-path="url(#clipPath274)"
             id="g270"><text
               id="text278"
               style="font-variant:normal;font-weight:normal;font-size:9.96000004px;font-family:Calibri;-inkscape-font-specification:Calibri;writing-mode:lr-tb;fill:#000000;fill-opacity:1;fill-rule:nonzero;stroke:none"
               transform="matrix(1,0,0,-1,429.55,552.58)"><tspan
                 id="tspan276"
                 y="0"
                 x="0 5.1792002 9.9500399 12.98784 17.51964">Kafka</tspan></text>
</g></g><g
           id="g280"><g
             clip-path="url(#clipPath286)"
             id="g282" /></g></g></g><g
       id="g288"><path
         id="path306"
         style="fill:url(#linearGradient304);fill-opacity:1;fill-rule:nonzero;stroke:none"
         d="m 105,596.75 396,1.2 v 0.5 l -396,-1.2 z" /></g><path
       id="path308"
       style="fill:#4472c4;fill-opacity:1;fill-rule:nonzero;stroke:none"
       d="m 127.45,569.8 v 23.6 h -0.5 v -23.6 z m -3.25,1 3,-6 3,6 z m 6,21.6 -3,6 -3,-6 z" /><path
       id="path310"
       style="fill:#4472c4;fill-opacity:1;fill-rule:nonzero;stroke:none"
       d="m 200.05,569.05 v 23.6 h -0.5 v -23.6 z m -3.25,1 3,-6 3,6 z m 6,21.6 -3,6 -3,-6 z" /><path
       id="path312"
       style="fill:#4472c4;fill-opacity:1;fill-rule:nonzero;stroke:none"
       d="m 439.45,573.25 v 23.6 h -0.5 v -23.6 z m -3.25,1 3,-6 3,6 z m 6,21.6 -3,6 -3,-6 z" /><path
       id="path314"
       style="fill:#ffffff;fill-opacity:1;fill-rule:evenodd;stroke:none"
       d="m 194.4,609 h 75 v 24 h -75 z" /><path
       id="path316"
       style="fill:none;stroke:#70ad47;stroke-width:1;stroke-linecap:butt;stroke-linejoin:miter;stroke-miterlimit:10;stroke-dasharray:none;stroke-opacity:1"
       d="m 194.4,609 h 75 v 24 h -75 z" /><g
       id="g318"><g
         clip-path="url(#clipPath324)"
         id="g320"><g
           id="g326"><g
             clip-path="url(#clipPath332)"
             id="g328"><text
               id="text336"
               style="font-variant:normal;font-weight:normal;font-size:9.96000004px;font-family:Calibri;-inkscape-font-specification:Calibri;writing-mode:lr-tb;fill:#000000;fill-opacity:1;fill-rule:nonzero;stroke:none"
               transform="matrix(1,0,0,-1,207.65,619.42)"><tspan
                 id="tspan334"
                 y="0"
                 x="0 5.2688398 10.18908 14.95992 17.250719 20.617201 25.88604 31.154881 33.664799 38.226479 46.14468">healthd.yml</tspan></text>
</g></g><g
           id="g338"><g
             clip-path="url(#clipPath344)"
             id="g340" /></g></g></g><path
       id="path346"
       style="fill:#ffffff;fill-opacity:1;fill-rule:evenodd;stroke:none"
       d="m 88.8,609 h 95.4 v 24 H 88.8 Z" /><path
       id="path348"
       style="fill:none;stroke:#70ad47;stroke-width:1;stroke-linecap:butt;stroke-linejoin:miter;stroke-miterlimit:10;stroke-dasharray:none;stroke-opacity:1"
       d="m 88.8,609 h 95.4 v 24 H 88.8 Z" /><g
       id="g350"><g
         clip-path="url(#clipPath356)"
         id="g352"><g
           id="g358"><g
             clip-path="url(#clipPath364)"
             id="g360"><text
               id="text368"
               style="font-variant:normal;font-weight:normal;font-size:9.96000004px;font-family:Calibri;-inkscape-font-specification:Calibri;writing-mode:lr-tb;fill:#000000;fill-opacity:1;fill-rule:nonzero;stroke:none"
               transform="matrix(1,0,0,-1,105.5,619.42)"><tspan
                 id="tspan366"
                 y="0"
                 x="0 5.2688398 10.18908 14.95992 17.250719 20.617201 25.88604 31.154881">healthd.</tspan></text>
</g></g><g
           id="g370"><g
             clip-path="url(#clipPath376)"
             id="g372"><text
               id="text380"
               style="font-variant:normal;font-weight:normal;font-size:9.96000004px;font-family:Calibri;-inkscape-font-specification:Calibri;writing-mode:lr-tb;fill:#000000;fill-opacity:1;fill-rule:nonzero;stroke:none"
               transform="matrix(1,0,0,-1,139.22,619.42)"><tspan
                 id="tspan378"
                 y="0"
                 x="0 3.8445599 8.7648001 12.3504 16.792561 19.083361 23.29644">service</tspan></text>
</g></g><g
           id="g382"><g
             clip-path="url(#clipPath388)"
             id="g384" /></g></g></g><path
       id="path390"
       style="fill:#ffffff;fill-opacity:1;fill-rule:evenodd;stroke:none"
       d="m 292.8,610.2 h 75 v 24 h -75 z" /><path
       id="path392"
       style="fill:none;stroke:#70ad47;stroke-width:1;stroke-linecap:butt;stroke-linejoin:miter;stroke-miterlimit:10;stroke-dasharray:none;stroke-opacity:1"
       d="m 292.8,610.2 h 75 v 24 h -75 z" /><g
       id="g394"><g
         clip-path="url(#clipPath400)"
         id="g396"><g
           id="g402"><g
             clip-path="url(#clipPath408)"
             id="g404"><text
               id="text412"
               style="font-variant:normal;font-weight:normal;font-size:9.96000004px;font-family:Calibri;-inkscape-font-specification:Calibri;writing-mode:lr-tb;fill:#000000;fill-opacity:1;fill-rule:nonzero;stroke:none"
               transform="matrix(1,0,0,-1,318.05,620.62)"><tspan
                 id="tspan410"
                 y="0"
                 x="0 3.8445599 8.3962803 12.24084 14.53164 19.78056">syslog</tspan></text>
</g></g><g
           id="g414"><g
             clip-path="url(#clipPath420)"
             id="g416" /></g></g></g><path
       id="path422"
       style="fill:#4472c4;fill-opacity:1;fill-rule:nonzero;stroke:none"
       d="m 368.65,573.2 v 23.6 h -0.5 v -23.6 z m -3.25,1 3,-6 3,6 z m 6,21.6 -3,6 -3,-6 z" /><path
       id="path424"
       style="fill:#4472c4;fill-opacity:1;fill-rule:nonzero;stroke:none"
       d="m 283.52,570.8 -0.54,89 h 0.5 l 0.54,-89 z m 3.24,1.02 -2.96,-6.02 -3.04,5.98 z m -6.52,86.96 2.96,6.02 3.04,-5.98 z" /><path
       id="path426"
       style="fill:#4472c4;fill-opacity:1;fill-rule:nonzero;stroke:none"
       d="m 177.8,684.85 h 29.6 v -0.5 h -29.6 z m 1,-3.25 -6,3 6,3 z m 27.6,6 6,-3 -6,-3 z" /><path
       id="path428"
       style="fill:#4472c4;fill-opacity:1;fill-rule:nonzero;stroke:none"
       d="m 354.2,684.25 h 29.6 v -0.5 h -29.6 z m 1,-3.25 -6,3 6,3 z m 27.6,6 6,-3 -6,-3 z" /><path
       id="path430"
       style="fill:#4472c4;fill-opacity:1;fill-rule:nonzero;stroke:none"
       d="m 143.15,633 -0.51,28.6 0.5,0.01 0.51,-28.61 z m -3.24,27.55 2.89,6.05 3.11,-5.95 z" /><path
       id="path432"
       style="fill:#4472c4;fill-opacity:1;fill-rule:nonzero;stroke:none"
       d="m 233.45,633 -0.51,28.6 0.5,0.01 0.51,-28.61 z m -3.24,27.55 2.89,6.05 3.11,-5.95 z" /><path
       id="path434"
       style="fill:#4472c4;fill-opacity:1;fill-rule:nonzero;stroke:none"
       d="m 326.5,666.01 0.64,-27.86 -0.5,-0.01 -0.64,27.85 z m 3.36,-26.79 -2.86,-6.07 -3.14,5.93 z" /></g></svg>