<?xml version="1.0" encoding="UTF-8" standalone="no"?>
<svg
   xmlns:dc="http://purl.org/dc/elements/1.1/"
   xmlns:cc="http://creativecommons.org/ns#"
   xmlns:rdf="http://www.w3.org/1999/02/22-rdf-syntax-ns#"
   xmlns:svg="http://www.w3.org/2000/svg"
   xmlns="http://www.w3.org/2000/svg"
   viewBox="0 0 816 1056"
   height="1056"
   width="816"
   xml:space="preserve"
   id="svg2"
   version="1.1"><metadata
     id="metadata8"><rdf:RDF><cc:Work
         rdf:about=""><dc:format>image/svg+xml</dc:format><dc:type
           rdf:resource="http://purl.org/dc/dcmitype/StillImage" /></cc:Work></rdf:RDF></metadata><defs
     id="defs6"><clipPath
       id="clipPath22"
       clipPathUnits="userSpaceOnUse"><path
         style="clip-rule:evenodd"
         id="path20"
         d="M 211.13,670.06 H 348.19 V 696.1 H 211.13 Z" /></clipPath><clipPath
       id="clipPath30"
       clipPathUnits="userSpaceOnUse"><path
         style="clip-rule:evenodd"
         id="path28"
         d="M 211.13,670.06 H 348.19 V 696.1 H 211.13 Z" /></clipPath><clipPath
       id="clipPath42"
       clipPathUnits="userSpaceOnUse"><path
         style="clip-rule:evenodd"
         id="path40"
         d="M 211.13,670.06 H 348.19 V 696.1 H 211.13 Z" /></clipPath><clipPath
       id="clipPath54"
       clipPathUnits="userSpaceOnUse"><path
         style="clip-rule:evenodd"
         id="path52"
         d="M 211.13,670.06 H 348.19 V 696.1 H 211.13 Z" /></clipPath><clipPath
       id="clipPath66"
       clipPathUnits="userSpaceOnUse"><path
         style="clip-rule:evenodd"
         id="path64"
         d="m 108.5,670.18 h 63.24 V 696.7 H 108.5 Z" /></clipPath><clipPath
       id="clipPath74"
       clipPathUnits="userSpaceOnUse"><path
         style="clip-rule:evenodd"
         id="path72"
         d="m 108.5,670.18 h 63.24 V 696.7 H 108.5 Z" /></clipPath><clipPath
       id="clipPath86"
       clipPathUnits="userSpaceOnUse"><path
         style="clip-rule:evenodd"
         id="path84"
         d="m 108.5,670.18 h 63.24 V 696.7 H 108.5 Z" /></clipPath><clipPath
       id="clipPath98"
       clipPathUnits="userSpaceOnUse"><path
         style="clip-rule:evenodd"
         id="path96"
         d="m 391.15,673.06 h 63.264 V 697.9 H 391.15 Z" /></clipPath><clipPath
       id="clipPath106"
       clipPathUnits="userSpaceOnUse"><path
         style="clip-rule:evenodd"
         id="path104"
         d="m 391.15,673.06 h 63.264 V 697.9 H 391.15 Z" /></clipPath><clipPath
       id="clipPath118"
       clipPathUnits="userSpaceOnUse"><path
         style="clip-rule:evenodd"
         id="path116"
         d="m 391.15,673.06 h 63.264 V 697.9 H 391.15 Z" /></clipPath><clipPath
       id="clipPath130"
       clipPathUnits="userSpaceOnUse"><path
         style="clip-rule:evenodd"
         id="path128"
         d="m 92.304,533.35 h 63.24 v 26.544 h -63.24 z" /></clipPath><clipPath
       id="clipPath138"
       clipPathUnits="userSpaceOnUse"><path
         style="clip-rule:evenodd"
         id="path136"
         d="m 92.304,533.35 h 63.24 v 26.544 h -63.24 z" /></clipPath><clipPath
       id="clipPath150"
       clipPathUnits="userSpaceOnUse"><path
         style="clip-rule:evenodd"
         id="path148"
         d="m 92.304,533.35 h 63.24 v 26.544 h -63.24 z" /></clipPath><clipPath
       id="clipPath162"
       clipPathUnits="userSpaceOnUse"><path
         style="clip-rule:evenodd"
         id="path160"
         d="m 170.3,535.75 h 63.264 v 26.544 H 170.3 Z" /></clipPath><clipPath
       id="clipPath170"
       clipPathUnits="userSpaceOnUse"><path
         style="clip-rule:evenodd"
         id="path168"
         d="m 170.3,535.75 h 63.264 v 26.544 H 170.3 Z" /></clipPath><clipPath
       id="clipPath182"
       clipPathUnits="userSpaceOnUse"><path
         style="clip-rule:evenodd"
         id="path180"
         d="m 170.3,535.75 h 63.264 v 26.544 H 170.3 Z" /></clipPath><clipPath
       id="clipPath194"
       clipPathUnits="userSpaceOnUse"><path
         style="clip-rule:evenodd"
         id="path192"
         d="m 249.53,539.23 h 69.24 v 22.344 h -69.24 z" /></clipPath><clipPath
       id="clipPath202"
       clipPathUnits="userSpaceOnUse"><path
         style="clip-rule:evenodd"
         id="path200"
         d="m 249.53,539.23 h 69.24 v 22.344 h -69.24 z" /></clipPath><clipPath
       id="clipPath214"
       clipPathUnits="userSpaceOnUse"><path
         style="clip-rule:evenodd"
         id="path212"
         d="m 249.53,539.23 h 69.24 v 22.344 h -69.24 z" /></clipPath><clipPath
       id="clipPath226"
       clipPathUnits="userSpaceOnUse"><path
         style="clip-rule:evenodd"
         id="path224"
         d="m 334.15,537.55 h 63.24 v 26.544 h -63.24 z" /></clipPath><clipPath
       id="clipPath234"
       clipPathUnits="userSpaceOnUse"><path
         style="clip-rule:evenodd"
         id="path232"
         d="m 334.15,537.55 h 63.24 v 26.544 h -63.24 z" /></clipPath><clipPath
       id="clipPath246"
       clipPathUnits="userSpaceOnUse"><path
         style="clip-rule:evenodd"
         id="path244"
         d="m 334.15,537.55 h 63.24 v 26.544 h -63.24 z" /></clipPath><clipPath
       id="clipPath258"
       clipPathUnits="userSpaceOnUse"><path
         style="clip-rule:evenodd"
         id="path256"
         d="m 409.15,538.15 h 63.264 v 26.544 H 409.15 Z" /></clipPath><clipPath
       id="clipPath266"
       clipPathUnits="userSpaceOnUse"><path
         style="clip-rule:evenodd"
         id="path264"
         d="m 409.15,538.15 h 63.264 v 26.544 H 409.15 Z" /></clipPath><clipPath
       id="clipPath278"
       clipPathUnits="userSpaceOnUse"><path
         style="clip-rule:evenodd"
         id="path276"
         d="m 409.15,538.15 h 63.264 v 26.544 H 409.15 Z" /></clipPath><linearGradient
       id="linearGradient296"
       spreadMethod="pad"
       gradientUnits="userSpaceOnUse"
       y2="598.45001"
       x2="303.12"
       y1="595.04999"
       x1="303.12"><stop
         id="stop282"
         offset="0"
         style="stop-opacity:1;stop-color:#c7d5ed" /><stop
         id="stop284"
         offset="0.085"
         style="stop-opacity:1;stop-color:#abc0e4" /><stop
         id="stop286"
         offset="0.13"
         style="stop-opacity:1;stop-color:#abc0e4" /><stop
         id="stop288"
         offset="0.5"
         style="stop-opacity:1;stop-color:#f6f8fc" /><stop
         id="stop290"
         offset="0.87"
         style="stop-opacity:1;stop-color:#abc0e4" /><stop
         id="stop292"
         offset="0.915"
         style="stop-opacity:1;stop-color:#abc0e4" /><stop
         id="stop294"
         offset="1"
         style="stop-opacity:1;stop-color:#c7d5ed" /></linearGradient><clipPath
       id="clipPath316"
       clipPathUnits="userSpaceOnUse"><path
         style="clip-rule:evenodd"
         id="path314"
         d="m 194.93,613.06 h 74.04 v 15.84 h -74.04 z" /></clipPath><clipPath
       id="clipPath324"
       clipPathUnits="userSpaceOnUse"><path
         style="clip-rule:evenodd"
         id="path322"
         d="m 194.93,613.06 h 74.04 v 15.84 h -74.04 z" /></clipPath><clipPath
       id="clipPath336"
       clipPathUnits="userSpaceOnUse"><path
         style="clip-rule:evenodd"
         id="path334"
         d="m 194.93,613.06 h 74.04 v 15.84 h -74.04 z" /></clipPath><clipPath
       id="clipPath348"
       clipPathUnits="userSpaceOnUse"><path
         style="clip-rule:evenodd"
         id="path346"
         d="m 89.304,613.06 h 94.44 v 15.84 h -94.44 z" /></clipPath><clipPath
       id="clipPath356"
       clipPathUnits="userSpaceOnUse"><path
         style="clip-rule:evenodd"
         id="path354"
         d="m 89.304,613.06 h 94.44 v 15.84 h -94.44 z" /></clipPath><clipPath
       id="clipPath368"
       clipPathUnits="userSpaceOnUse"><path
         style="clip-rule:evenodd"
         id="path366"
         d="m 89.304,613.06 h 94.44 v 15.84 h -94.44 z" /></clipPath><clipPath
       id="clipPath380"
       clipPathUnits="userSpaceOnUse"><path
         style="clip-rule:evenodd"
         id="path378"
         d="m 89.304,613.06 h 94.44 v 15.84 h -94.44 z" /></clipPath><clipPath
       id="clipPath392"
       clipPathUnits="userSpaceOnUse"><path
         style="clip-rule:evenodd"
         id="path390"
         d="m 293.33,614.26 h 74.064 V 630.1 H 293.33 Z" /></clipPath><clipPath
       id="clipPath400"
       clipPathUnits="userSpaceOnUse"><path
         style="clip-rule:evenodd"
         id="path398"
         d="m 293.33,614.26 h 74.064 V 630.1 H 293.33 Z" /></clipPath><clipPath
       id="clipPath412"
       clipPathUnits="userSpaceOnUse"><path
         style="clip-rule:evenodd"
         id="path410"
         d="m 293.33,614.26 h 74.064 V 630.1 H 293.33 Z" /></clipPath></defs><g
     transform="matrix(1.3333333,0,0,-1.3333333,0,1056)"
     id="g10"><path
       id="path12"
       style="fill:#4472c4;fill-opacity:1;fill-rule:evenodd;stroke:none"
       d="m 210.6,666 h 138 v 34.2 h -138 z" /><path
       id="path14"
       style="fill:none;stroke:#2f528f;stroke-width:1;stroke-linecap:butt;stroke-linejoin:miter;stroke-miterlimit:10;stroke-dasharray:none;stroke-opacity:1"
       d="m 210.6,666 h 138 v 34.2 h -138 z" /><g
       id="g16"><g
         clip-path="url(#clipPath22)"
         id="g18"><g
           id="g24"><g
             clip-path="url(#clipPath30)"
             id="g26"><text
               id="text34"
               style="font-variant:normal;font-weight:normal;font-size:11.03999996px;font-family:Calibri;-inkscape-font-specification:Calibri;writing-mode:lr-tb;fill:#000000;fill-opacity:1;fill-rule:nonzero;stroke:none"
               transform="matrix(1,0,0,-1,229.97,683.62)"><tspan
                 id="tspan32"
                 y="0"
                 x="0 6.8448 12.34272 17.63088 20.17008 23.868481 29.66448 32.159519 38.043839 43.806721 49.304642 53.886238 58.909439">Health Check </tspan></text>
</g></g><g
           id="g36"><g
             clip-path="url(#clipPath42)"
             id="g38"><text
               id="text46"
               style="font-variant:normal;font-weight:normal;font-size:11.03999996px;font-family:Calibri;-inkscape-font-specification:Calibri;writing-mode:lr-tb;fill:#000000;fill-opacity:1;fill-rule:nonzero;stroke:none"
               transform="matrix(1,0,0,-1,291.41,683.62)"><tspan
                 id="tspan44"
                 y="0"
                 x="0 6.7233601 12.01152 17.39904 26.26416 32.13744">Daemon</tspan></text>
</g></g><g
           id="g48"><g
             clip-path="url(#clipPath54)"
             id="g50" /></g></g></g><path
       id="path56"
       style="fill:#ffffff;fill-opacity:1;fill-rule:evenodd;stroke:none"
       d="m 108,666.05 h 64.2 v 34.8 H 108 Z" /><path
       id="path58"
       style="fill:none;stroke:#70ad47;stroke-width:1;stroke-linecap:butt;stroke-linejoin:miter;stroke-miterlimit:10;stroke-dasharray:none;stroke-opacity:1"
       d="m 108,666.05 h 64.2 v 34.8 H 108 Z" /><g
       id="g60"><g
         clip-path="url(#clipPath66)"
         id="g62"><g
           id="g68"><g
             clip-path="url(#clipPath74)"
             id="g70"><text
               id="text78"
               style="font-variant:normal;font-weight:normal;font-size:11.03999996px;font-family:Calibri;-inkscape-font-specification:Calibri;writing-mode:lr-tb;fill:#000000;fill-opacity:1;fill-rule:nonzero;stroke:none"
               transform="matrix(1,0,0,-1,121.46,684.1)"><tspan
                 id="tspan76"
                 y="0"
                 x="0 4.3166399 9.3508797 13.66752 17.365919 22.78656 31.65168">systemd</tspan></text>
</g></g><g
           id="g80"><g
             clip-path="url(#clipPath86)"
             id="g82" /></g></g></g><path
       id="path88"
       style="fill:#ffffff;fill-opacity:1;fill-rule:evenodd;stroke:none"
       d="m 390.6,669 h 64.2 v 33 h -64.2 z" /><path
       id="path90"
       style="fill:none;stroke:#70ad47;stroke-width:1;stroke-linecap:butt;stroke-linejoin:miter;stroke-miterlimit:10;stroke-dasharray:none;stroke-opacity:1"
       d="m 390.6,669 h 64.2 v 33 h -64.2 z" /><g
       id="g92"><g
         clip-path="url(#clipPath98)"
         id="g94"><g
           id="g100"><g
             clip-path="url(#clipPath106)"
             id="g102"><text
               id="text110"
               style="font-variant:normal;font-weight:normal;font-size:11.03999996px;font-family:Calibri;-inkscape-font-specification:Calibri;writing-mode:lr-tb;fill:#000000;fill-opacity:1;fill-rule:nonzero;stroke:none"
               transform="matrix(1,0,0,-1,401.59,686.02)"><tspan
                 id="tspan108"
                 y="0"
                 x="0 4.3166399 9.3508797 13.66752 17.365919 22.78656 31.65168 36.211201 39.909599">systemctl</tspan></text>
</g></g><g
           id="g112"><g
             clip-path="url(#clipPath118)"
             id="g114" /></g></g></g><path
       id="path120"
       style="fill:#ffffff;fill-opacity:1;fill-rule:evenodd;stroke:none"
       d="M 91.8,529.25 H 156 v 34.8 H 91.8 Z" /><path
       id="path122"
       style="fill:none;stroke:#70ad47;stroke-width:1;stroke-linecap:butt;stroke-linejoin:miter;stroke-miterlimit:10;stroke-dasharray:none;stroke-opacity:1"
       d="M 91.8,529.25 H 156 v 34.8 H 91.8 Z" /><g
       id="g124"><g
         clip-path="url(#clipPath130)"
         id="g126"><g
           id="g132"><g
             clip-path="url(#clipPath138)"
             id="g134"><text
               id="text142"
               style="font-variant:normal;font-weight:normal;font-size:9.96000004px;font-family:Calibri;-inkscape-font-specification:Calibri;writing-mode:lr-tb;fill:#000000;fill-opacity:1;fill-rule:nonzero;stroke:none"
               transform="matrix(1,0,0,-1,109.58,547.78)"><tspan
                 id="tspan140"
                 y="0"
                 x="0 6.1254001 11.37432 15.5874 20.14908 25.069321">Docker</tspan></text>
</g></g><g
           id="g144"><g
             clip-path="url(#clipPath150)"
             id="g146" /></g></g></g><path
       id="path152"
       style="fill:#ffffff;fill-opacity:1;fill-rule:evenodd;stroke:none"
       d="M 169.8,531.65 H 234 v 34.8 h -64.2 z" /><path
       id="path154"
       style="fill:none;stroke:#70ad47;stroke-width:1;stroke-linecap:butt;stroke-linejoin:miter;stroke-miterlimit:10;stroke-dasharray:none;stroke-opacity:1"
       d="M 169.8,531.65 H 234 v 34.8 h -64.2 z" /><g
       id="g156"><g
         clip-path="url(#clipPath162)"
         id="g158"><g
           id="g164"><g
             clip-path="url(#clipPath170)"
             id="g166"><text
               id="text174"
               style="font-variant:normal;font-weight:normal;font-size:9.96000004px;font-family:Calibri;-inkscape-font-specification:Calibri;writing-mode:lr-tb;fill:#000000;fill-opacity:1;fill-rule:nonzero;stroke:none"
               transform="matrix(1,0,0,-1,178.58,550.18)"><tspan
                 id="tspan172"
                 y="0"
                 x="0 5.1792002 10.42812 15.69696 20.617201 24.093241 29.37204 34.292278 37.62888 42.6786">Kubernetes</tspan></text>
</g></g><g
           id="g176"><g
             clip-path="url(#clipPath182)"
             id="g178" /></g></g></g><path
       id="path184"
       style="fill:#ffffff;fill-opacity:1;fill-rule:evenodd;stroke:none"
       d="m 249,535.15 h 70.2 v 30.6 H 249 Z" /><path
       id="path186"
       style="fill:none;stroke:#70ad47;stroke-width:1;stroke-linecap:butt;stroke-linejoin:miter;stroke-miterlimit:10;stroke-dasharray:none;stroke-opacity:1"
       d="m 249,535.15 h 70.2 v 30.6 H 249 Z" /><g
       id="g188"><g
         clip-path="url(#clipPath194)"
         id="g190"><g
           id="g196"><g
             clip-path="url(#clipPath202)"
             id="g198"><text
               id="text206"
               style="font-variant:normal;font-weight:normal;font-size:9.96000004px;font-family:Calibri;-inkscape-font-specification:Calibri;writing-mode:lr-tb;fill:#000000;fill-opacity:1;fill-rule:nonzero;stroke:none"
               transform="matrix(1,0,0,-1,259.25,551.38)"><tspan
                 id="tspan204"
                 y="0"
                 x="0 5.1493201 8.6253595 13.91412 21.832319 26.75256 30.089161 35.377918 40.298161 45.68652">Prometheus</tspan></text>
</g></g><g
           id="g208"><g
             clip-path="url(#clipPath214)"
             id="g210" /></g></g></g><path
       id="path216"
       style="fill:#ffffff;fill-opacity:1;fill-rule:evenodd;stroke:none"
       d="m 333.6,533.45 h 64.2 v 34.8 h -64.2 z" /><path
       id="path218"
       style="fill:none;stroke:#70ad47;stroke-width:1;stroke-linecap:butt;stroke-linejoin:miter;stroke-miterlimit:10;stroke-dasharray:none;stroke-opacity:1"
       d="m 333.6,533.45 h 64.2 v 34.8 h -64.2 z" /><g
       id="g220"><g
         clip-path="url(#clipPath226)"
         id="g222"><g
           id="g228"><g
             clip-path="url(#clipPath234)"
             id="g230"><text
               id="text238"
               style="font-variant:normal;font-weight:normal;font-size:9.96000004px;font-family:Calibri;-inkscape-font-specification:Calibri;writing-mode:lr-tb;fill:#000000;fill-opacity:1;fill-rule:nonzero;stroke:none"
               transform="matrix(1,0,0,-1,344.95,551.98)"><tspan
                 id="tspan236"
                 y="0"
                 x="0 5.4082799 10.17912 15.46788 20.736719 23.027519 26.36412 34.879921">RabbitMQ</tspan></text>
</g></g><g
           id="g240"><g
             clip-path="url(#clipPath246)"
             id="g242" /></g></g></g><path
       id="path248"
       style="fill:#ffffff;fill-opacity:1;fill-rule:evenodd;stroke:none"
       d="m 408.6,534.05 h 64.2 v 34.8 h -64.2 z" /><path
       id="path250"
       style="fill:none;stroke:#70ad47;stroke-width:1;stroke-linecap:butt;stroke-linejoin:miter;stroke-miterlimit:10;stroke-dasharray:none;stroke-opacity:1"
       d="m 408.6,534.05 h 64.2 v 34.8 h -64.2 z" /><g
       id="g252"><g
         clip-path="url(#clipPath258)"
         id="g254"><g
           id="g260"><g
             clip-path="url(#clipPath266)"
             id="g262"><text
               id="text270"
               style="font-variant:normal;font-weight:normal;font-size:9.96000004px;font-family:Calibri;-inkscape-font-specification:Calibri;writing-mode:lr-tb;fill:#000000;fill-opacity:1;fill-rule:nonzero;stroke:none"
               transform="matrix(1,0,0,-1,429.55,552.58)"><tspan
                 id="tspan268"
                 y="0"
                 x="0 5.1792002 9.9500399 12.98784 17.51964">Kafka</tspan></text>
</g></g><g
           id="g272"><g
             clip-path="url(#clipPath278)"
             id="g274" /></g></g></g><g
       id="g280"><path
         id="path298"
         style="fill:url(#linearGradient296);fill-opacity:1;fill-rule:nonzero;stroke:none"
         d="m 105,596.75 396,1.2 v 0.5 l -396,-1.2 z" /></g><path
       id="path300"
       style="fill:#4472c4;fill-opacity:1;fill-rule:nonzero;stroke:none"
       d="m 127.45,569.8 v 23.6 h -0.5 v -23.6 z m -3.25,1 3,-6 3,6 z m 6,21.6 -3,6 -3,-6 z" /><path
       id="path302"
       style="fill:#4472c4;fill-opacity:1;fill-rule:nonzero;stroke:none"
       d="m 200.05,569.05 v 23.6 h -0.5 v -23.6 z m -3.25,1 3,-6 3,6 z m 6,21.6 -3,6 -3,-6 z" /><path
       id="path304"
       style="fill:#4472c4;fill-opacity:1;fill-rule:nonzero;stroke:none"
       d="m 439.45,573.25 v 23.6 h -0.5 v -23.6 z m -3.25,1 3,-6 3,6 z m 6,21.6 -3,6 -3,-6 z" /><path
       id="path306"
       style="fill:#ffffff;fill-opacity:1;fill-rule:evenodd;stroke:none"
       d="m 194.4,609 h 75 v 24 h -75 z" /><path
       id="path308"
       style="fill:none;stroke:#70ad47;stroke-width:1;stroke-linecap:butt;stroke-linejoin:miter;stroke-miterlimit:10;stroke-dasharray:none;stroke-opacity:1"
       d="m 194.4,609 h 75 v 24 h -75 z" /><g
       id="g310"><g
         clip-path="url(#clipPath316)"
         id="g312"><g
           id="g318"><g
             clip-path="url(#clipPath324)"
             id="g320"><text
               id="text328"
               style="font-variant:normal;font-weight:normal;font-size:9.96000004px;font-family:Calibri;-inkscape-font-specification:Calibri;writing-mode:lr-tb;fill:#000000;fill-opacity:1;fill-rule:nonzero;stroke:none"
               transform="matrix(1,0,0,-1,207.65,619.42)"><tspan
                 id="tspan326"
                 y="0"
                 x="0 5.2688398 10.18908 14.95992 17.250719 20.617201 25.88604 31.154881 33.664799 38.226479 46.14468">healthd.yml</tspan></text>
</g></g><g
           id="g330"><g
             clip-path="url(#clipPath336)"
             id="g332" /></g></g></g><path
       id="path338"
       style="fill:#ffffff;fill-opacity:1;fill-rule:evenodd;stroke:none"
       d="m 88.8,609 h 95.4 v 24 H 88.8 Z" /><path
       id="path340"
       style="fill:none;stroke:#70ad47;stroke-width:1;stroke-linecap:butt;stroke-linejoin:miter;stroke-miterlimit:10;stroke-dasharray:none;stroke-opacity:1"
       d="m 88.8,609 h 95.4 v 24 H 88.8 Z" /><g
       id="g342"><g
         clip-path="url(#clipPath348)"
         id="g344"><g
           id="g350"><g
             clip-path="url(#clipPath356)"
             id="g352"><text
               id="text360"
               style="font-variant:normal;font-weight:normal;font-size:9.96000004px;font-family:Calibri;-inkscape-font-specification:Calibri;writing-mode:lr-tb;fill:#000000;fill-opacity:1;fill-rule:nonzero;stroke:none"
               transform="matrix(1,0,0,-1,105.5,619.42)"><tspan
                 id="tspan358"
                 y="0"
                 x="0 5.2688398 10.18908 14.95992 17.250719 20.617201 25.88604 31.154881">healthd.</tspan></text>
</g></g><g
           id="g362"><g
             clip-path="url(#clipPath368)"
             id="g364"><text
               id="text372"
               style="font-variant:normal;font-weight:normal;font-size:9.96000004px;font-family:Calibri;-inkscape-font-specification:Calibri;writing-mode:lr-tb;fill:#000000;fill-opacity:1;fill-rule:nonzero;stroke:none"
               transform="matrix(1,0,0,-1,139.22,619.42)"><tspan
                 id="tspan370"
                 y="0"
                 x="0 3.8445599 8.7648001 12.3504 16.792561 19.083361 23.29644">service</tspan></text>
</g></g><g
           id="g374"><g
             clip-path="url(#clipPath380)"
             id="g376" /></g></g></g><path
       id="path382"
       style="fill:#ffffff;fill-opacity:1;fill-rule:evenodd;stroke:none"
       d="m 292.8,610.2 h 75 v 24 h -75 z" /><path
       id="path384"
       style="fill:none;stroke:#70ad47;stroke-width:1;stroke-linecap:butt;stroke-linejoin:miter;stroke-miterlimit:10;stroke-dasharray:none;stroke-opacity:1"
       d="m 292.8,610.2 h 75 v 24 h -75 z" /><g
       id="g386"><g
         clip-path="url(#clipPath392)"
         id="g388"><g
           id="g394"><g
             clip-path="url(#clipPath400)"
             id="g396"><text
               id="text404"
               style="font-variant:normal;font-weight:normal;font-size:9.96000004px;font-family:Calibri;-inkscape-font-specification:Calibri;writing-mode:lr-tb;fill:#000000;fill-opacity:1;fill-rule:nonzero;stroke:none"
               transform="matrix(1,0,0,-1,318.05,620.62)"><tspan
                 id="tspan402"
                 y="0"
                 x="0 3.8445599 8.3962803 12.24084 14.53164 19.78056">syslog</tspan></text>
</g></g><g
           id="g406"><g
             clip-path="url(#clipPath412)"
             id="g408" /></g></g></g><path
       id="path414"
       style="fill:#4472c4;fill-opacity:1;fill-rule:nonzero;stroke:none"
       d="m 368.65,573.2 v 23.6 h -0.5 v -23.6 z m -3.25,1 3,-6 3,6 z m 6,21.6 -3,6 -3,-6 z" /><path
       id="path416"
       style="fill:#4472c4;fill-opacity:1;fill-rule:nonzero;stroke:none"
       d="m 283.52,570.8 -0.54,89 h 0.5 l 0.54,-89 z m 3.24,1.02 -2.96,-6.02 -3.04,5.98 z m -6.52,86.96 2.96,6.02 3.04,-5.98 z" /><path
       id="path418"
       style="fill:#4472c4;fill-opacity:1;fill-rule:nonzero;stroke:none"
       d="m 230.65,661.6 v -23 h -0.5 v 23 z m -3.25,-1 3,6 3,-6 z m 6,-21 -3,-6 -3,6 z" /><path
       id="path420"
       style="fill:#4472c4;fill-opacity:1;fill-rule:nonzero;stroke:none"
       d="m 329.65,662.2 v -23 h -0.5 v 23 z m -3.25,-1 3,6 3,-6 z m 6,-21 -3,-6 -3,6 z" /><path
       id="path422"
       style="fill:#4472c4;fill-opacity:1;fill-rule:nonzero;stroke:none"
       d="m 177.8,684.85 h 29.6 v -0.5 h -29.6 z m 1,-3.25 -6,3 6,3 z m 27.6,6 6,-3 -6,-3 z" /><path
       id="path424"
       style="fill:#4472c4;fill-opacity:1;fill-rule:nonzero;stroke:none"
       d="m 354.2,684.25 h 29.6 v -0.5 h -29.6 z m 1,-3.25 -6,3 6,3 z m 27.6,6 6,-3 -6,-3 z" /><path
       id="path426"
       style="fill:#4472c4;fill-opacity:1;fill-rule:nonzero;stroke:none"
       d="m 143.15,633 -0.51,28.6 0.5,0.01 0.51,-28.61 z m -3.24,27.55 2.89,6.05 3.11,-5.95 z" /></g></svg>